<?xml version="1.0" encoding="UTF-8"?>
<!-- Generator: Adobe Illustrator 22.1.0, SVG Export Plug-In . SVG Version: 6.00 Build 0)  -->
<svg version="1.1" id="Layer_1" xmlns="http://www.w3.org/2000/svg" xmlns:xlink="http://www.w3.org/1999/xlink" x="0px" y="0px" viewBox="0 0 209 80.3" style="enable-background:new 0 0 209 80.3;" xml:space="preserve">
<style type="text/css">
	.st0{fill:#90AFB6;}
	.st1{fill:#4B4E56;}
</style>
<g>
	<path class="st0" d="M28.1,5.6v12.5l9.5,2.5v32.5h7.9V1L28.1,5.6L28.1,5.6z M18.6,5.6l-1.4-0.4v47.9h1.4V5.6L18.6,5.6z M13.9,4.4   v48.8h1.6V4.9L13.9,4.4L13.9,4.4z M7.5,2.7v50.4h1.6v-50L7.5,2.7L7.5,2.7z M4.3,1.9v51.3h1.6V2.3L4.3,1.9L4.3,1.9z M1.2,1v52.1h1.4   V1.4L1.2,1L1.2,1z M10.7,3.5v49.6h1.6V3.9L10.7,3.5L10.7,3.5z"/>
	<path class="st1" d="M174.1,31.1h6.1v2.4h0.1c0.5-0.9,1.9-3.1,6.1-3.1c2,0,4.6,0.7,6.3,3.9c1.4-2.2,3.6-3.9,7-3.9   c1.5,0,4,0.3,5.8,2.2c2,2.2,2.4,3.6,2.4,8.5v12h-6.6V41.5c0-1.8,0-4.9-3.4-4.9c-3.6,0-3.6,3.3-3.6,4.6v12h-6.6V41.3   c0-1.1,0-4.6-3.3-4.6c-3.7,0-3.7,3.6-3.7,4.9v11.6h-6.6V31.1L174.1,31.1z M1.3,80.4h2.1v-3.9c0.5,0.3,1.2,0.4,1.9,0.4   c2.6,0,4.4-1.9,4.4-4.5c0-2.4-1.5-4.2-3.8-4.2c-1.1,0-2,0.4-2.6,1v-0.8H1.2v12H1.3z M5.3,70.2c1.4,0,2.2,1,2.2,2.3   c0,1.4-0.8,2.4-2.3,2.4c-0.7,0-1.2-0.1-1.7-0.5v-3.3C4,70.5,4.6,70.2,5.3,70.2L5.3,70.2z M13.1,76.7l3.9-5.2v5.2h2.1v-8.3H17   l-3.9,5.2v-5.2H11v8.3H13.1L13.1,76.7z M27.4,74.4c-0.5,0.4-1.3,0.8-2.3,0.8c-1.3,0-2.3-0.7-2.5-1.9h6c0.1-0.3,0.1-0.6,0.1-1.1   c0-2.3-1.8-3.8-3.9-3.8c-2.7,0-4.4,1.9-4.4,4.3c0,2.6,1.8,4.3,4.5,4.3c1.2,0,2.3-0.3,3.2-1L27.4,74.4L27.4,74.4z M24.7,70   c1.2,0,1.9,0.8,1.9,1.8h-4.1C22.7,70.7,23.4,70,24.7,70L24.7,70z M35,76.7h2.1v-8.3h-6.3L30.7,71c-0.2,3.2-1.2,3.9-1.9,3.8l0.2,2.1   c2.2,0,3.3-0.9,3.7-5.4l0.1-0.9H35L35,76.7L35,76.7z M38.1,70.5h2.7v6.2h2.1v-6.2h2.7v-2.1h-7.5L38.1,70.5L38.1,70.5z M45.8,72.6   c0,2.5,1.8,4.3,4.5,4.3s4.5-1.9,4.5-4.3c0-2.5-1.8-4.3-4.5-4.3C47.5,68.2,45.8,70.1,45.8,72.6L45.8,72.6z M48,72.6   c0-1.4,1-2.4,2.2-2.4c1.3,0,2.3,1,2.3,2.4s-1,2.4-2.3,2.4C49,74.9,48,73.9,48,72.6L48,72.6z M56.1,80.4h2.1v-3.9   c0.5,0.3,1.2,0.4,1.9,0.4c2.6,0,4.4-1.9,4.4-4.5c0-2.4-1.5-4.2-3.8-4.2c-1.1,0-2,0.4-2.6,1v-0.8H56v12H56.1z M60.1,70.2   c1.4,0,2.2,1,2.2,2.3c0,1.4-0.8,2.4-2.3,2.4c-0.7,0-1.2-0.1-1.7-0.5v-3.3C58.7,70.5,59.4,70.2,60.1,70.2L60.1,70.2z M75.3,76.7h2.1   v-8.3h-2.1v3.1h-3.6v-3.1h-2.1v8.3h2.1v-3.2h3.6V76.7L75.3,76.7z M78.7,72.6c0,2.5,1.8,4.3,4.5,4.3s4.5-1.9,4.5-4.3   c0-2.5-1.8-4.3-4.5-4.3C80.5,68.2,78.7,70.1,78.7,72.6L78.7,72.6z M81,72.6c0-1.4,1-2.4,2.2-2.4c1.3,0,2.3,1,2.3,2.4   s-1,2.4-2.3,2.4C82,74.9,81,73.9,81,72.6L81,72.6z M89,76.7c0.8,0,2.3,0.1,3.3,0.1c2.7,0,3.9-0.9,3.9-2.5c0-1-0.6-1.6-1.8-1.9l0,0   c0.8-0.1,1.5-0.8,1.5-1.8c0-1.5-1.3-2.2-3.8-2.2c-1.3,0-2.5,0.1-3.3,0.1v8.2H89z M92.5,73.2c1,0,1.6,0.3,1.6,1c0,0.6-0.6,1-1.5,1   c-0.5,0-1.1-0.1-1.4-0.1v-1.8h1.3V73.2z M92.5,70c0.8,0,1.3,0.3,1.3,0.9s-0.6,1-1.3,1h-1.4v-1.8C91.4,70.1,92,70,92.5,70L92.5,70z    M97.2,72.6c0,2.5,1.8,4.3,4.5,4.3s4.5-1.9,4.5-4.3c0-2.5-1.8-4.3-4.5-4.3C99,68.2,97.2,70.1,97.2,72.6L97.2,72.6z M99.5,72.6   c0-1.4,1-2.4,2.2-2.4c1.3,0,2.3,1,2.3,2.4s-1,2.4-2.3,2.4C100.4,74.9,99.5,73.9,99.5,72.6L99.5,72.6z M107.5,76.7h2.1v-6.3h3.4v-2   h-5.6v8.3H107.5z M113,72.6c0,2.5,1.8,4.3,4.5,4.3s4.5-1.9,4.5-4.3c0-2.5-1.8-4.3-4.5-4.3C114.8,68.2,113,70.1,113,72.6L113,72.6z    M115.3,72.6c0-1.4,1-2.4,2.2-2.4c1.3,0,2.3,1,2.3,2.4s-1,2.4-2.3,2.4C116.3,74.9,115.3,73.9,115.3,72.6L115.3,72.6z M132.8,76.7   h2.1v-8.3h-7.8v8.3h2.1v-6.3h3.5L132.8,76.7L132.8,76.7z M136.2,72.6c0,2.5,1.8,4.3,4.5,4.3s4.5-1.9,4.5-4.3c0-2.5-1.8-4.3-4.5-4.3   C138,68.2,136.2,70.1,136.2,72.6L136.2,72.6z M138.5,72.6c0-1.4,1-2.4,2.2-2.4c1.3,0,2.3,1,2.3,2.4s-1,2.4-2.3,2.4   C139.4,74.9,138.5,73.9,138.5,72.6L138.5,72.6z M154.3,68.4h-2.7l-3,4.1l3.3,4.2h2.8l-3.6-4.3L154.3,68.4L154.3,68.4z M146.5,76.7   h2.1v-8.3h-2.1V76.7L146.5,76.7z M154.4,72.6c0,2.5,1.8,4.3,4.5,4.3s4.5-1.9,4.5-4.3c0-2.5-1.8-4.3-4.5-4.3   C156.2,68.2,154.4,70.1,154.4,72.6L154.4,72.6z M156.7,72.6c0-1.4,1-2.4,2.2-2.4c1.3,0,2.3,1,2.3,2.4s-1,2.4-2.3,2.4   C157.6,74.9,156.7,73.9,156.7,72.6L156.7,72.6z M169.9,76.7h2.1v-8.3h-6.3l-0.1,2.6c-0.2,3.2-1.2,3.9-1.9,3.8l0.2,2.1   c2.2,0,3.3-0.9,3.7-5.4l0.1-0.9h2.2L169.9,76.7L169.9,76.7z M180.3,74.4c-0.5,0.4-1.3,0.8-2.3,0.8c-1.3,0-2.3-0.7-2.5-1.9h6   c0.1-0.3,0.1-0.6,0.1-1.1c0-2.3-1.8-3.8-3.9-3.8c-2.7,0-4.4,1.9-4.4,4.3c0,2.6,1.8,4.3,4.5,4.3c1.2,0,2.3-0.3,3.2-1L180.3,74.4   L180.3,74.4z M177.5,70c1.2,0,1.9,0.8,1.9,1.8h-4.1C175.6,70.7,176.3,70,177.5,70L177.5,70z M188.4,76.7h2.1v-8.3h-2.1v3.1h-3.6   v-3.1h-2.1v8.3h2.1v-3.2h3.6V76.7L188.4,76.7z M194.5,76.7l3.9-5.2v5.2h2.1v-8.3h-2.1l-3.9,5.2v-5.2h-2.1v8.3H194.5L194.5,76.7z    M206.3,68.4c-3,0-4.1,1.3-4.1,2.9c0,1.4,0.9,2.1,1.6,2.4l-2.2,2.9h2.4l1.7-2.5h1.2v2.5h2.1v-8.3h-2.7V68.4z M204.4,71.5   c0-0.6,0.5-1.3,1.5-1.3h0.9v2.4h-1.1C205.1,72.6,204.4,72.2,204.4,71.5L204.4,71.5z M28.5,18.1v35h-9.9V20.6L28.5,18.1L28.5,18.1z    M54,23.8h9.6l5.8,19.3h0.1l5.7-19.3h9.7v29.3H78l0.2-21.9l-0.1-0.1l-6.3,22h-4.9l-6.3-22l-0.1,0.1l0.2,21.9H54V23.8L54,23.8z    M104.4,39.7c-0.3-1.3-1.5-3.7-5-3.7c-3.4,0-4.7,2.4-5,3.7H104.4L104.4,39.7z M110.2,46.2c-1.1,2.5-2.6,4.4-4.5,5.6   c-1.9,1.3-3.9,2-6.3,2c-6.3,0-11.6-5.1-11.6-11.6c0-6.1,4.8-11.8,11.5-11.8s11.6,5.3,11.6,11.9c0,0.9,0,1.2-0.2,1.7H94.2   c0.4,2.7,2.6,4.2,5.1,4.2c2,0,3.1-0.9,4-2.1L110.2,46.2L110.2,46.2z M121.6,31.1h3.2v5.5h-3.2V53H115V36.6h-3.2v-5.5h3.2v-7.3h6.6   V31.1L121.6,31.1z M126.7,31.1h6.2v2.3h0.1c0.5-1.1,1.7-3.1,5.5-3.1v6.6c-3,0.1-5.2,0.7-5.2,4V53h-6.6V31.1L126.7,31.1z    M147.7,53.1h-6.6v-22h6.6V53.1L147.7,53.1z M141.2,21.6h6.6v6h-6.6V21.6L141.2,21.6z M170.8,53.1h-6.2v-2.3h-0.1   c-1.3,2.8-4,3-5.7,3c-1.3,0-4.5-0.3-6.5-2.8c-1.8-2.2-2-3.7-2-6.8V31.1h6.6v12.2c0,1.5,0,4.4,3.5,4.4c1.9,0,3.8-1,3.8-4.5V31.1h6.6   L170.8,53.1L170.8,53.1z"/>
</g>
<style xmlns="" type="text/css" id="custom-css-injector"/></svg>