<svg width="61" height="61" viewBox="0 0 61 61" fill="none" xmlns="http://www.w3.org/2000/svg">
<g clip-path="url(#clip0_2057_732)">
<path d="M35.1 7.6V20.1L44.5999 22.6V55.1H52.5V3L35.1 7.6ZM25.6 7.6L24.2 7.2V55.1H25.6V7.6ZM20.9 6.4V55.2H22.5V6.9L20.9 6.4ZM14.5 4.7V55.1H16.1V5.1L14.5 4.7ZM11.3 3.9V55.2H12.9V4.3L11.3 3.9ZM8.19995 3V55.1H9.59995V3.4L8.19995 3ZM17.7 5.5V55.1H19.3V5.9L17.7 5.5Z" fill="#90AFB6"/>
<path d="M181.1 33.1H187.2V35.5H187.3C187.8 34.6 189.2 32.4 193.4 32.4C195.4 32.4 198 33.1 199.7 36.3C201.1 34.1 203.3 32.4 206.7 32.4C208.2 32.4 210.7 32.7 212.5 34.6C214.5 36.8 214.9 38.2 214.9 43.1V55.1H208.3V43.5C208.3 41.7 208.3 38.6 204.9 38.6C201.3 38.6 201.3 41.9 201.3 43.2V55.2H194.7V43.3C194.7 42.2 194.7 38.7 191.4 38.7C187.7 38.7 187.7 42.3 187.7 43.6V55.2H181.1V33.1ZM8.29995 82.4H10.4V78.5C10.9 78.8 11.6 78.9 12.3 78.9C14.9 78.9 16.7 77 16.7 74.4C16.7 72 15.2 70.2 12.9 70.2C11.8 70.2 10.9 70.6 10.3 71.2V70.4H8.19995V82.4H8.29995ZM12.3 72.2C13.7 72.2 14.5 73.2 14.5 74.5C14.5 75.9 13.7 76.9 12.2 76.9C11.5 76.9 11 76.8 10.5 76.4V73.1C11 72.5 11.6 72.2 12.3 72.2ZM20.1 78.7L24 73.5V78.7H26.1V70.4H24L20.1 75.6V70.4H18V78.7H20.1ZM34.4 76.4C33.9 76.8 33.1 77.2 32.1 77.2C30.8 77.2 29.8 76.5 29.6 75.3H35.6C35.7 75 35.7 74.7 35.7 74.2C35.7 71.9 33.8999 70.4 31.7999 70.4C29.0999 70.4 27.4 72.3 27.4 74.7C27.4 77.3 29.1999 79 31.9 79C33.1 79 34.2 78.7 35.1 78L34.4 76.4ZM31.7 72C32.9 72 33.6 72.8 33.6 73.8H29.5C29.7 72.7 30.4 72 31.7 72ZM42 78.7H44.0999V70.4H37.7999L37.7 73C37.5 76.2 36.4999 76.9 35.7999 76.8L36 78.9C38.2 78.9 39.3 78 39.7 73.5L39.7999 72.6H42V78.7ZM45.0999 72.5H47.7999V78.7H49.9V72.5H52.5999V70.4H45.0999V72.5ZM52.7999 74.6C52.7999 77.1 54.5999 78.9 57.2999 78.9C59.9999 78.9 61.7999 77 61.7999 74.6C61.7999 72.1 59.9999 70.3 57.2999 70.3C54.4999 70.2 52.7999 72.1 52.7999 74.6ZM55 74.6C55 73.2 56 72.2 57.2 72.2C58.5 72.2 59.5 73.2 59.5 74.6C59.5 76 58.5 77 57.2 77C56 76.9 55 75.9 55 74.6ZM63.0999 82.4H65.2V78.5C65.7 78.8 66.3999 78.9 67.0999 78.9C69.6999 78.9 71.5 77 71.5 74.4C71.5 72 70 70.2 67.7 70.2C66.6 70.2 65.6999 70.6 65.0999 71.2V70.4H63V82.4H63.0999ZM67.0999 72.2C68.4999 72.2 69.2999 73.2 69.2999 74.5C69.2999 75.9 68.5 76.9 67 76.9C66.3 76.9 65.7999 76.8 65.2999 76.4V73.1C65.6999 72.5 66.3999 72.2 67.0999 72.2ZM82.3 78.7H84.4V70.4H82.3V73.5H78.7V70.4H76.6V78.7H78.7V75.5H82.3V78.7ZM85.7 74.6C85.7 77.1 87.5 78.9 90.2 78.9C92.9 78.9 94.7 77 94.7 74.6C94.7 72.1 92.9 70.3 90.2 70.3C87.5 70.2 85.7 72.1 85.7 74.6ZM88 74.6C88 73.2 89 72.2 90.2 72.2C91.5 72.2 92.5 73.2 92.5 74.6C92.5 76 91.5 77 90.2 77C89 76.9 88 75.9 88 74.6ZM96 78.7C96.8 78.7 98.3 78.8 99.3 78.8C102 78.8 103.2 77.9 103.2 76.3C103.2 75.3 102.6 74.7 101.4 74.4C102.2 74.3 102.9 73.6 102.9 72.6C102.9 71.1 101.6 70.4 99.1 70.4C97.8 70.4 96.6 70.5 95.8 70.5V78.7H96ZM99.5 75.2C100.5 75.2 101.1 75.5 101.1 76.2C101.1 76.8 100.5 77.2 99.6 77.2C99.1 77.2 98.5 77.1 98.2 77.1V75.3H99.5V75.2ZM99.5 72C100.3 72 100.8 72.3 100.8 72.9C100.8 73.5 100.2 73.9 99.5 73.9H98.1V72.1C98.4 72.1 99 72 99.5 72ZM104.2 74.6C104.2 77.1 106 78.9 108.7 78.9C111.4 78.9 113.2 77 113.2 74.6C113.2 72.1 111.4 70.3 108.7 70.3C106 70.2 104.2 72.1 104.2 74.6ZM106.5 74.6C106.5 73.2 107.5 72.2 108.7 72.2C110 72.2 111 73.2 111 74.6C111 76 110 77 108.7 77C107.4 76.9 106.5 75.9 106.5 74.6ZM114.5 78.7H116.6V72.4H120V70.4H114.4V78.7H114.5ZM120 74.6C120 77.1 121.8 78.9 124.5 78.9C127.2 78.9 129 77 129 74.6C129 72.1 127.2 70.3 124.5 70.3C121.8 70.2 120 72.1 120 74.6ZM122.3 74.6C122.3 73.2 123.3 72.2 124.5 72.2C125.8 72.2 126.8 73.2 126.8 74.6C126.8 76 125.8 77 124.5 77C123.3 76.9 122.3 75.9 122.3 74.6ZM139.8 78.7H141.9V70.4H134.1V78.7H136.2V72.4H139.7L139.8 78.7ZM143.2 74.6C143.2 77.1 145 78.9 147.7 78.9C150.4 78.9 152.2 77 152.2 74.6C152.2 72.1 150.4 70.3 147.7 70.3C145 70.2 143.2 72.1 143.2 74.6ZM145.5 74.6C145.5 73.2 146.5 72.2 147.7 72.2C149 72.2 150 73.2 150 74.6C150 76 149 77 147.7 77C146.4 76.9 145.5 75.9 145.5 74.6ZM161.3 70.4H158.6L155.6 74.5L158.9 78.7H161.7L158.1 74.4L161.3 70.4ZM153.5 78.7H155.6V70.4H153.5V78.7ZM161.4 74.6C161.4 77.1 163.2 78.9 165.9 78.9C168.6 78.9 170.4 77 170.4 74.6C170.4 72.1 168.6 70.3 165.9 70.3C163.2 70.2 161.4 72.1 161.4 74.6ZM163.7 74.6C163.7 73.2 164.7 72.2 165.9 72.2C167.2 72.2 168.2 73.2 168.2 74.6C168.2 76 167.2 77 165.9 77C164.6 76.9 163.7 75.9 163.7 74.6ZM176.9 78.7H179V70.4H172.7L172.6 73C172.4 76.2 171.4 76.9 170.7 76.8L170.9 78.9C173.1 78.9 174.2 78 174.6 73.5L174.7 72.6H176.9V78.7ZM187.3 76.4C186.8 76.8 186 77.2 185 77.2C183.7 77.2 182.7 76.5 182.5 75.3H188.5C188.6 75 188.6 74.7 188.6 74.2C188.6 71.9 186.8 70.4 184.7 70.4C182 70.4 180.3 72.3 180.3 74.7C180.3 77.3 182.1 79 184.8 79C186 79 187.1 78.7 188 78L187.3 76.4ZM184.5 72C185.7 72 186.4 72.8 186.4 73.8H182.3C182.6 72.7 183.3 72 184.5 72ZM195.4 78.7H197.5V70.4H195.4V73.5H191.8V70.4H189.7V78.7H191.8V75.5H195.4V78.7ZM201.5 78.7L205.4 73.5V78.7H207.5V70.4H205.4L201.5 75.6V70.4H199.4V78.7H201.5ZM213.3 70.4C210.3 70.4 209.2 71.7 209.2 73.3C209.2 74.7 210.1 75.4 210.8 75.7L208.6 78.6H211L212.7 76.1H213.9V78.6H216V70.3H213.3V70.4ZM211.4 73.5C211.4 72.9 211.9 72.2 212.9 72.2H213.8V74.6H212.7C212.1 74.6 211.4 74.2 211.4 73.5ZM35.5 20.1V55.1H25.6V22.6L35.5 20.1ZM61 25.8H70.5999L76.4 45.1H76.5L82.2 25.8H91.9V55.1H85L85.2 33.2L85.1 33.1L78.8 55.1H73.9L67.5999 33.1L67.5 33.2L67.7 55.1H61V25.8ZM111.4 41.7C111.1 40.4 109.9 38 106.4 38C103 38 101.7 40.4 101.4 41.7H111.4ZM117.2 48.2C116.1 50.7 114.6 52.6 112.7 53.8C110.8 55.1 108.8 55.8 106.4 55.8C100.1 55.8 94.8 50.7 94.8 44.2C94.8 38.1 99.6 32.4 106.3 32.4C113 32.4 117.9 37.7 117.9 44.3C117.9 45.2 117.9 45.5 117.7 46H101.2C101.6 48.7 103.8 50.2 106.3 50.2C108.3 50.2 109.4 49.3 110.3 48.1L117.2 48.2ZM128.6 33.1H131.8V38.6H128.6V55H122V38.6H118.8V33.1H122V25.8H128.6V33.1ZM133.7 33.1H139.9V35.4H140C140.5 34.3 141.7 32.3 145.5 32.3V38.9C142.5 39 140.3 39.6 140.3 42.9V55H133.7V33.1ZM154.7 55.1H148.1V33.1H154.7V55.1ZM148.2 23.6H154.8V29.6H148.2V23.6ZM177.8 55.1H171.6V52.8H171.5C170.2 55.6 167.5 55.8 165.8 55.8C164.5 55.8 161.3 55.5 159.3 53C157.5 50.8 157.3 49.3 157.3 46.2V33.1H163.9V45.3C163.9 46.8 163.9 49.7 167.4 49.7C169.3 49.7 171.2 48.7 171.2 45.2V33.1H177.8V55.1Z" fill="#4B4E56"/>
</g>
<defs>
<clipPath id="clip0_2057_732">
<rect width="61" height="61" fill="white"/>
</clipPath>
</defs>
</svg>
